<svg width="225" height="129" viewBox="0 0 225 129" fill="none" xmlns="http://www.w3.org/2000/svg">
<path d="M121.882 103H123.588C124.493 103 125.361 103.351 126.001 103.976C126.641 104.601 127 105.449 127 106.333C127 108.543 126.101 110.663 124.502 112.226C122.902 113.789 120.733 114.667 118.471 114.667H109.941V118M98 101.333C98 100.449 98.3595 99.6014 98.9993 98.9763C99.6391 98.3512 100.507 98 101.412 98H118.471C119.375 98 120.243 98.3512 120.883 98.9763C121.523 99.6014 121.882 100.449 121.882 101.333V104.667C121.882 105.551 121.523 106.399 120.883 107.024C120.243 107.649 119.375 108 118.471 108H101.412C100.507 108 99.6391 107.649 98.9993 107.024C98.3595 106.399 98 105.551 98 104.667V101.333ZM106.529 119.667C106.529 119.225 106.709 118.801 107.029 118.488C107.349 118.176 107.783 118 108.235 118H111.647C112.099 118 112.533 118.176 112.853 118.488C113.173 118.801 113.353 119.225 113.353 119.667V126.333C113.353 126.775 113.173 127.199 112.853 127.512C112.533 127.824 112.099 128 111.647 128H108.235C107.783 128 107.349 127.824 107.029 127.512C106.709 127.199 106.529 126.775 106.529 126.333V119.667Z" stroke="#AFB1B2" stroke-width="2" stroke-linecap="round" stroke-linejoin="round"/>
<path d="M68 118.815C68 116.94 68.5018 115.332 69.5054 113.993C70.509 112.615 71.8889 111.562 73.6452 110.835C75.4373 110.07 77.4982 109.687 79.828 109.687C81.19 109.687 82.6057 109.802 84.0753 110.031C85.5448 110.261 86.853 110.606 88 111.065V108.539C88 106.013 87.3011 104.004 85.9032 102.511C84.5054 101.019 82.5699 100.272 80.0968 100.272C78.5914 100.272 77.1039 100.578 75.6344 101.191C74.2007 101.765 72.6953 102.626 71.1183 103.774L69.7204 101.019C71.5484 99.679 73.3405 98.684 75.0968 98.0333C76.853 97.3444 78.6452 97 80.4731 97C83.914 97 86.638 98.0525 88.6452 100.157C90.6523 102.262 91.6559 105.171 91.6559 108.883V122.719C91.6559 123.254 91.7634 123.656 91.9785 123.924C92.1935 124.154 92.534 124.288 93 124.326V127.426C92.6057 127.464 92.2652 127.502 91.9785 127.541C91.6918 127.579 91.4767 127.579 91.3333 127.541C90.4373 127.502 89.7563 127.196 89.2903 126.622C88.8244 126.048 88.5735 125.436 88.5376 124.785L88.4839 122.604C87.2294 124.326 85.5986 125.665 83.5914 126.622C81.5842 127.541 79.5412 128 77.4624 128C75.6703 128 74.0394 127.598 72.5699 126.794C71.1362 125.952 70.0072 124.843 69.1828 123.465C68.3943 122.049 68 120.499 68 118.815ZM86.7634 121.111C87.1577 120.575 87.4624 120.059 87.6774 119.561C87.8925 119.064 88 118.623 88 118.241V113.878C86.7814 113.38 85.509 112.998 84.1828 112.73C82.8925 112.462 81.5842 112.328 80.2581 112.328C77.6416 112.328 75.5269 112.883 73.914 113.993C72.3011 115.102 71.4946 116.614 71.4946 118.528C71.4946 119.638 71.7634 120.69 72.3011 121.685C72.8387 122.642 73.6272 123.446 74.6667 124.096C75.7061 124.709 76.9247 125.015 78.3226 125.015C80.0789 125.015 81.7097 124.651 83.2151 123.924C84.7563 123.197 85.9391 122.259 86.7634 121.111Z" fill="#AFB1B2"/>
<path d="M35.1941 120.049L35.1951 120.048L44.951 110.29L45.3547 109.887L45.2122 109.334C44.4125 106.23 45.2798 102.896 47.5355 100.64C48.6589 99.5186 50.0577 98.7132 51.5912 98.3045C53.1247 97.8959 54.7389 97.8985 56.2711 98.3122L56.2717 98.3124C56.3879 98.3436 56.4732 98.4289 56.5045 98.5452C56.5372 98.6669 56.5053 98.7745 56.4266 98.8533L52.0886 103.192L51.6786 103.602L51.8309 104.162L52.7516 107.544L52.9018 108.096L53.4538 108.246L56.8356 109.167L57.3953 109.319L57.8055 108.909L62.1434 104.571C62.2224 104.492 62.344 104.463 62.4414 104.49L62.4414 104.49L62.4511 104.493C62.5672 104.524 62.6525 104.609 62.6838 104.725L62.6845 104.728C63.5296 107.838 62.6513 111.184 60.3597 113.46L60.3573 113.463C58.1011 115.719 54.7675 116.587 51.6643 115.787L51.1113 115.644L50.7076 116.048L40.9516 125.805C40.1814 126.576 39.1603 127 38.0822 127C37.0069 127 35.9829 126.578 35.1914 125.802C34.8142 125.425 34.5148 124.977 34.3104 124.485C34.1055 123.991 34 123.461 34 122.927C34 122.392 34.1055 121.862 34.3104 121.369C34.5153 120.875 34.8156 120.426 35.1941 120.049Z" stroke="#AFB1B2" stroke-width="2"/>
<path d="M32 109.051L20.8555 108.104L16.5 98L12.1445 108.119L1 109.051L9.463 116.27L6.921 127L16.5 121.307L26.079 127L23.5525 116.27L32 109.051ZM16.5 118.453L10.672 121.917L12.222 115.385L7.076 110.989L13.865 110.409L16.5 104.258L19.1505 110.424L25.9395 111.004L20.7935 115.4L22.3435 121.933L16.5 118.453Z" fill="#DADCE0"/>
<path d="M193 87.1541C193 86.1631 193.256 85.3009 193.767 84.5676C194.297 83.8144 195.018 83.2396 195.932 82.8432C196.845 82.427 197.904 82.2189 199.11 82.2189C199.749 82.2189 200.398 82.2685 201.055 82.3676C201.731 82.4667 202.325 82.6252 202.836 82.8432V81.8622C202.836 80.7721 202.535 79.9198 201.932 79.3054C201.329 78.691 200.461 78.3838 199.329 78.3838C198.525 78.3838 197.767 78.5423 197.055 78.8595C196.343 79.1568 195.585 79.5829 194.781 80.1378L193.767 77.9378C194.717 77.2441 195.667 76.7288 196.617 76.3919C197.585 76.055 198.598 75.8865 199.658 75.8865C201.576 75.8865 203.083 76.4414 204.179 77.5514C205.293 78.6414 205.85 80.1973 205.85 82.2189V88.0162C205.85 88.3928 205.905 88.6604 206.014 88.8189C206.142 88.9775 206.352 89.0667 206.644 89.0865V91.7027C206.37 91.7622 206.124 91.8018 205.905 91.8216C205.685 91.8414 205.503 91.8514 205.357 91.8514C204.717 91.8514 204.233 91.6829 203.905 91.3459C203.576 91.009 203.384 90.6126 203.329 90.1568L203.247 89.2649C202.626 90.1369 201.831 90.8108 200.863 91.2865C199.895 91.7622 198.918 92 197.932 92C196.982 92 196.133 91.7919 195.384 91.3757C194.635 90.9396 194.05 90.355 193.63 89.6216C193.21 88.8883 193 88.0658 193 87.1541ZM202.124 88.1054C202.343 87.8477 202.516 87.5901 202.644 87.3324C202.772 87.0748 202.836 86.8468 202.836 86.6486V84.8649C202.325 84.6468 201.786 84.4883 201.22 84.3892C200.653 84.2703 200.096 84.2108 199.548 84.2108C198.452 84.2108 197.557 84.4486 196.863 84.9243C196.187 85.4 195.849 86.0541 195.849 86.8865C195.849 87.3423 195.959 87.7784 196.178 88.1946C196.416 88.6108 196.744 88.9477 197.165 89.2054C197.603 89.4631 198.142 89.5919 198.781 89.5919C199.439 89.5919 200.069 89.4532 200.672 89.1757C201.274 88.8982 201.758 88.5414 202.124 88.1054Z" fill="#AFB1B2"/>
<path d="M217.233 92C216.137 92 215.141 91.7225 214.246 91.1676C213.369 90.5928 212.675 89.8297 212.164 88.8784V91.7027H209.506V70H212.52V79.0973C213.086 78.1063 213.79 77.3234 214.63 76.7486C215.488 76.1739 216.493 75.8865 217.644 75.8865C218.593 75.8865 219.461 76.1045 220.246 76.5405C221.032 76.9766 221.699 77.5712 222.247 78.3243C222.813 79.0775 223.242 79.9396 223.534 80.9108C223.845 81.882 224 82.9126 224 84.0027C224 85.0928 223.826 86.1234 223.479 87.0946C223.151 88.0658 222.676 88.918 222.055 89.6514C221.434 90.3847 220.712 90.9595 219.89 91.3757C219.087 91.7919 218.201 92 217.233 92ZM216.438 89.2054C217.096 89.2054 217.698 89.0667 218.246 88.7892C218.794 88.4919 219.269 88.1054 219.671 87.6297C220.073 87.1541 220.374 86.5991 220.575 85.9649C220.794 85.3306 220.904 84.6766 220.904 84.0027C220.904 83.0712 220.721 82.1991 220.356 81.3865C220.009 80.5739 219.516 79.9198 218.877 79.4243C218.237 78.9288 217.497 78.6811 216.657 78.6811C216.054 78.6811 215.488 78.8396 214.959 79.1568C214.429 79.4541 213.954 79.8604 213.534 80.3757C213.132 80.8712 212.794 81.4261 212.52 82.0405V86.1432C212.63 86.5991 212.821 87.0153 213.095 87.3919C213.369 87.7486 213.689 88.0658 214.054 88.3432C214.42 88.6009 214.812 88.809 215.233 88.9676C215.653 89.1261 216.054 89.2054 216.438 89.2054Z" fill="#AFB1B2"/>
<path d="M187.929 78.4136V92H184.761V79.4486L181.593 80.5V92H178.425V81.5186L175.257 82.57V92H172.088V83.605L168.92 84.6071V92H165.752V85.675L161.903 86.94L161 83.7857L165.752 82.225V69H168.92V81.19L172.088 80.155V69H175.257V79.12L178.425 78.085V69H181.593V77.05L184.761 75.9986V69H187.929V74.9636L191.097 73.9286L192 77.0829L187.929 78.4136Z" fill="#AFB1B2"/>
<path d="M132.444 96C131.497 96 130.686 95.663 130.011 94.9891C129.337 94.3139 129 93.5028 129 92.5556V68.4444C129 67.4972 129.337 66.6861 130.011 66.0109C130.686 65.337 131.497 65 132.444 65H156.556C157.503 65 158.314 65.337 158.989 66.0109C159.663 66.6861 160 67.4972 160 68.4444V92.5556C160 93.5028 159.663 94.3139 158.989 94.9891C158.314 95.663 157.503 96 156.556 96H132.444ZM132.444 92.5556H156.556V68.4444H132.444V92.5556ZM134.167 89.1111H154.833L148.375 80.5L143.208 87.3889L139.333 82.2222L134.167 89.1111Z" fill="#AFB1B2"/>
<path d="M128 78.3336L112.5 89L97 78.3336L102.167 73.0004L112.5 80.1112L122.833 73.0004L128 78.3336Z" fill="#DADCE0"/>
<path d="M85.6667 72.75H67.5833C66.8982 72.75 66.2411 73.0222 65.7566 73.5066C65.2722 73.9911 65 74.6482 65 75.3333V93.4167C65 94.1018 65.2722 94.7589 65.7566 95.2434C66.2411 95.7278 66.8982 96 67.5833 96H85.6667C86.3518 96 87.0089 95.7278 87.4934 95.2434C87.9778 94.7589 88.25 94.1018 88.25 93.4167V75.3333C88.25 74.6482 87.9778 73.9911 87.4934 73.5066C87.0089 73.0222 86.3518 72.75 85.6667 72.75ZM85.6667 93.4167H67.5833V75.3333H85.6667V93.4167ZM81.7917 66.2917C81.7917 65.9491 81.9278 65.6206 82.17 65.3783C82.4122 65.1361 82.7408 65 83.0833 65H85.6667C86.0092 65 86.3378 65.1361 86.58 65.3783C86.8222 65.6206 86.9583 65.9491 86.9583 66.2917C86.9583 66.6342 86.8222 66.9628 86.58 67.205C86.3378 67.4472 86.0092 67.5833 85.6667 67.5833H83.0833C82.7408 67.5833 82.4122 67.4472 82.17 67.205C81.9278 66.9628 81.7917 66.6342 81.7917 66.2917ZM96 67.5833V68.875C96 69.2176 95.8639 69.5461 95.6217 69.7883C95.3794 70.0306 95.0509 70.1667 94.7083 70.1667C94.3658 70.1667 94.0372 70.0306 93.795 69.7883C93.5528 69.5461 93.4167 69.2176 93.4167 68.875V67.5833H92.125C91.7824 67.5833 91.4539 67.4472 91.2117 67.205C90.9694 66.9628 90.8333 66.6342 90.8333 66.2917C90.8333 65.9491 90.9694 65.6206 91.2117 65.3783C91.4539 65.1361 91.7824 65 92.125 65H93.4167C94.1018 65 94.7589 65.2722 95.2434 65.7566C95.7278 66.2411 96 66.8982 96 67.5833ZM96 75.3333V77.9167C96 78.2592 95.8639 78.5878 95.6217 78.83C95.3794 79.0722 95.0509 79.2083 94.7083 79.2083C94.3658 79.2083 94.0372 79.0722 93.795 78.83C93.5528 78.5878 93.4167 78.2592 93.4167 77.9167V75.3333C93.4167 74.9908 93.5528 74.6622 93.795 74.42C94.0372 74.1778 94.3658 74.0417 94.7083 74.0417C95.0509 74.0417 95.3794 74.1778 95.6217 74.42C95.8639 74.6622 96 74.9908 96 75.3333ZM96 84.375V85.6667C96 86.3518 95.7278 87.0089 95.2434 87.4934C94.7589 87.9778 94.1018 88.25 93.4167 88.25H92.125C91.7824 88.25 91.4539 88.1139 91.2117 87.8717C90.9694 87.6294 90.8333 87.3009 90.8333 86.9583C90.8333 86.6158 90.9694 86.2872 91.2117 86.045C91.4539 85.8028 91.7824 85.6667 92.125 85.6667H93.4167V84.375C93.4167 84.0324 93.5528 83.7039 93.795 83.4617C94.0372 83.2194 94.3658 83.0833 94.7083 83.0833C95.0509 83.0833 95.3794 83.2194 95.6217 83.4617C95.8639 83.7039 96 84.0324 96 84.375ZM72.75 68.875V67.5833C72.75 66.8982 73.0222 66.2411 73.5066 65.7566C73.9911 65.2722 74.6482 65 75.3333 65H76.625C76.9676 65 77.2961 65.1361 77.5383 65.3783C77.7806 65.6206 77.9167 65.9491 77.9167 66.2917C77.9167 66.6342 77.7806 66.9628 77.5383 67.205C77.2961 67.4472 76.9676 67.5833 76.625 67.5833H75.3333V68.875C75.3333 69.2176 75.1972 69.5461 74.955 69.7883C74.7128 70.0306 74.3842 70.1667 74.0417 70.1667C73.6991 70.1667 73.3706 70.0306 73.1283 69.7883C72.8861 69.5461 72.75 69.2176 72.75 68.875Z" fill="#AFB1B2"/>
<path d="M36.625 96C35.7656 96 35.0302 95.6967 34.4187 95.0901C33.8062 94.4825 33.5 93.7525 33.5 92.9V68.1C33.5 67.2475 33.8062 66.5174 34.4187 65.9098C35.0302 65.3033 35.7656 65 36.625 65H49.125L58.5 74.3V80.5H55.375V75.85H47.5625V68.1H36.625V92.9H46V96H36.625ZM55.8437 84.4137L57.5234 86.08L51.4687 92.0475V93.675H53.1094L59.1641 87.7075L60.8047 89.335L54.0859 96H49.125V91.0788L55.8437 84.4137ZM60.8047 89.335L55.8437 84.4137L58.1094 82.1662C58.3958 81.8821 58.7604 81.74 59.2031 81.74C59.6458 81.74 60.0104 81.8821 60.2969 82.1662L63.0703 84.9175C63.3568 85.2017 63.5 85.5633 63.5 86.0025C63.5 86.4417 63.3568 86.8033 63.0703 87.0875L60.8047 89.335Z" fill="#AFB1B2"/>
<path d="M1 90V83.2384H3.81818V87.2954H29.1818V83.2384H32V90H1ZM13.0477 84.5569V83.4075H12.942C12.6367 83.8582 12.2258 84.2135 11.7091 84.4731C11.1924 84.7318 10.6053 84.8612 9.94773 84.8612C8.79697 84.8612 7.8928 84.5736 7.23523 83.9984C6.57765 83.4242 6.24886 82.6412 6.24886 81.6495C6.24886 80.7028 6.63073 79.9307 7.39445 79.333C8.15724 78.7361 9.1375 78.4377 10.3352 78.4377C10.8754 78.4377 11.3747 78.4769 11.8331 78.5554C12.2906 78.6347 12.6837 78.7645 13.0125 78.9448V78.4715C13.0125 77.863 12.795 77.3784 12.3601 77.0178C11.9261 76.6572 11.3333 76.4769 10.5818 76.4769C10.0886 76.4769 9.62458 76.5783 9.18964 76.7811C8.75564 76.984 8.38598 77.277 8.08068 77.6601L6.56591 76.5783C7.01212 75.9698 7.57576 75.5077 8.25682 75.1922C8.93788 74.8766 9.72462 74.7189 10.617 74.7189C12.0731 74.7189 13.1886 75.0511 13.9636 75.7155C14.7386 76.3809 15.1261 77.3446 15.1261 78.6068V84.5569H13.0477ZM10.7227 80.0267C9.97121 80.0267 9.39583 80.1673 8.99659 80.4486C8.59735 80.7308 8.39773 81.1311 8.39773 81.6495C8.39773 82.1002 8.57386 82.4663 8.92614 82.7475C9.27841 83.0297 9.73636 83.1708 10.3 83.1708C11.0515 83.1708 11.6917 82.917 12.2206 82.4095C12.7485 81.9028 13.0125 81.2889 13.0125 80.5676C12.6837 80.3873 12.308 80.2521 11.8852 80.1619C11.4625 80.0718 11.075 80.0267 10.7227 80.0267ZM17.2398 84.5569V71H19.4239V74.8203L19.3182 76.1726H19.4239C19.4943 76.0599 19.7761 75.7723 20.2693 75.3098C20.7625 74.8482 21.5375 74.6174 22.5943 74.6174C24.0973 74.6174 25.2833 75.1358 26.1523 76.1726C27.0212 77.2094 27.4557 78.4039 27.4557 79.7562C27.4557 81.1085 27.0273 82.2972 26.1706 83.3223C25.3129 84.3482 24.1208 84.8612 22.5943 84.8612C21.6314 84.8612 20.8978 84.6584 20.3933 84.2527C19.8879 83.847 19.5648 83.5314 19.4239 83.3061H19.3182V84.5569H17.2398ZM22.2773 76.5107C21.3379 76.5107 20.6098 76.8429 20.0932 77.5073C19.5765 78.1727 19.3182 78.911 19.3182 79.7224C19.3182 80.5563 19.5765 81.3001 20.0932 81.9537C20.6098 82.6074 21.3379 82.9342 22.2773 82.9342C23.2167 82.9342 23.9508 82.6074 24.4797 81.9537C25.0076 81.3001 25.2716 80.5563 25.2716 79.7224C25.2716 78.8885 25.0076 78.1447 24.4797 77.4911C23.9508 76.8375 23.2167 76.5107 22.2773 76.5107Z" fill="#AFB1B2"/>
<path d="M211.884 47.4928C215.555 47.4928 218.491 50.3913 218.491 54.0145C218.491 55.2899 218.124 56.4928 217.478 57.4928L222 61.9855L219.959 64L215.378 59.5507C214.365 60.1739 213.162 60.5362 211.884 60.5362C208.214 60.5362 205.277 57.6377 205.277 54.0145C205.277 50.3913 208.214 47.4928 211.884 47.4928ZM211.884 50.3913C210.911 50.3913 209.977 50.773 209.289 51.4525C208.6 52.132 208.214 53.0536 208.214 54.0145C208.214 54.9754 208.6 55.897 209.289 56.5765C209.977 57.256 210.911 57.6377 211.884 57.6377C212.858 57.6377 213.791 57.256 214.48 56.5765C215.168 55.897 215.555 54.9754 215.555 54.0145C215.555 53.0536 215.168 52.132 214.48 51.4525C213.791 50.773 212.858 50.3913 211.884 50.3913ZM197.936 61.9855C197.158 61.9855 196.411 61.6801 195.86 61.1365C195.309 60.593 195 59.8557 195 59.087V35.8986C195 35.1298 195.309 34.3925 195.86 33.849C196.411 33.3054 197.158 33 197.936 33H199.405V43.1449L203.075 40.971L206.746 43.1449V33H215.555C216.333 33 217.08 33.3054 217.631 33.849C218.182 34.3925 218.491 35.1298 218.491 35.8986V47.2174C216.716 45.5317 214.347 44.5913 211.884 44.5942C209.353 44.5942 206.926 45.5867 205.136 47.3533C203.346 49.12 202.341 51.5161 202.341 54.0145C202.341 57.3623 204.117 60.3188 206.79 61.9855H197.936Z" fill="#AFB1B2"/>
<path d="M190.5 33C167.167 33 164.056 54.7 162.5 64H165.608C166.644 58.8338 169.237 55.9927 173.389 55.475C179.611 54.7 184.278 49.275 185.833 44.625L183.5 43.075L185.056 41.525C186.611 39.975 188.173 37.65 190.5 33Z" fill="#AFB1B2"/>
<path d="M135.2 61L129 54.75L131.17 52.5625L133.65 54.9844V42.0156L131.17 44.4375L129 42.25L135.2 36L141.4 42.25L139.23 44.4375L136.75 42.0156V54.9844L139.23 52.5625L141.4 54.75L135.2 61ZM144.5 59.4375V56.3125H160V59.4375H144.5ZM144.5 50.0625V46.9375H160V50.0625H144.5ZM144.5 40.6875V37.5625H160V40.6875H144.5Z" fill="#AFB1B2"/>
<path d="M97 64V60.5556H128V64H97ZM97 57.1111V53.6667H128V57.1111H97ZM97 50.2222V46.7778H128V50.2222H97ZM97 43.3333V39.8889H128V43.3333H97ZM97 36.4444V33H128V36.4444H97Z" fill="#AFB1B2"/>
<path d="M65 64V60.5556H96V64H65ZM75.3333 57.1111V53.6667H96V57.1111H75.3333ZM65 50.2222V46.7778H96V50.2222H65ZM75.3333 43.3333V39.8889H96V43.3333H75.3333ZM65 36.4444V33H96V36.4444H65Z" fill="#AFB1B2"/>
<path d="M33 64V60.5556H64V64H33ZM39.8889 57.1111V53.6667H57.1111V57.1111H39.8889ZM33 50.2222V46.7778H64V50.2222H33ZM39.8889 43.3333V39.8889H57.1111V43.3333H39.8889ZM33 36.4444V33H64V36.4444H33Z" fill="#AFB1B2"/>
<path d="M1 64V60.5556H32V64H1ZM1 57.1111V53.6667H21.6667V57.1111H1ZM1 50.2222V46.7778H32V50.2222H1ZM1 43.3333V39.8889H21.6667V43.3333H1ZM1 36.4444V33H32V36.4444H1Z" fill="#AFB1B2"/>
<path d="M194.5 32V28.5556H222.5V32H194.5ZM208.5 25.1111C205.133 25.1111 202.517 24.2069 200.65 22.3986C198.783 20.5903 197.85 18.1935 197.85 15.2083V1H203V15.4667C203 17.0741 203.467 18.3801 204.4 19.3847C205.333 20.3894 206.7 20.8917 208.5 20.8917C210.3 20.8917 211.667 20.3894 212.6 19.3847C213.533 18.3801 214 17.0741 214 15.4667V1H219.15V15.2083C219.15 18.1935 218.217 20.5903 216.35 22.3986C214.483 24.2069 211.867 25.1111 208.5 25.1111Z" fill="#AFB1B2"/>
<path d="M161 32V26.4643H170.538L177.692 6.53571H168.154V1H192V6.53571H183.654L176.5 26.4643H184.846V32H161Z" fill="#AFB1B2"/>
<path d="M133 32V1H145.75C148.25 1 150.558 1.7381 152.673 3.21429C154.788 4.69048 155.846 6.73869 155.846 9.35893C155.846 11.2411 155.404 12.6892 154.519 13.7034C153.635 14.719 152.808 15.4482 152.038 15.8911C153 16.297 154.068 17.0536 155.242 18.1607C156.414 19.2679 157 20.9286 157 23.1429C157 26.4274 155.75 28.7251 153.25 30.0359C150.75 31.3453 148.404 32 146.212 32H133ZM139.981 25.8H145.981C147.827 25.8 148.952 25.3475 149.355 24.4426C149.759 23.5392 149.962 22.8845 149.962 22.4786C149.962 22.0726 149.759 21.4172 149.355 20.5123C148.952 19.6089 147.769 19.1571 145.808 19.1571H139.981V25.8ZM139.981 13.1786H145.346C146.615 13.1786 147.538 12.8649 148.115 12.2375C148.692 11.6101 148.981 10.9089 148.981 10.1339C148.981 9.24821 148.654 8.52857 148 7.975C147.346 7.42143 146.5 7.14464 145.462 7.14464H139.981V13.1786Z" fill="#AFB1B2"/>
<path d="M112.077 21.5H115.232L107.519 1.5H104.712L97 21.5H100.154L101.845 16.8846H110.357L112.077 21.5ZM102.992 13.8077L106.116 5.31538L109.24 13.8077H102.992ZM125.872 14.7154L113.662 27.1615L108.123 21.5L105.995 23.6692L113.677 31.5L128 16.8846L125.872 14.7154Z" fill="#AFB1B2"/>
<path d="M93.0514 6.93058L87.645 1.45449C87.36 1.16513 86.9737 1.00176 86.5703 1.00001C86.1668 0.998272 85.7791 1.1583 85.4917 1.44519L72.235 14.6712C72.0283 14.8785 71.8836 15.1407 71.8175 15.4276L70.2514 22.3049L67.5 25.8001H71.8251L73.5717 24.0501L79.0591 22.7668C79.3344 22.7017 79.5867 22.5606 79.7886 22.3607L93.0438 9.13155C93.1876 8.98797 93.302 8.81695 93.3803 8.62835C93.4586 8.43975 93.4993 8.2373 93.5 8.03268C93.5007 7.82806 93.4614 7.62533 93.3844 7.43617C93.3075 7.24702 93.1943 7.07518 93.0514 6.93058ZM78.7226 19.0716L75.4788 15.7856L86.5561 4.7327L89.7984 8.01867L78.7226 19.0716ZM67.5 28.9H91.9701V32H67.5V28.9Z" fill="#AFB1B2"/>
<path d="M33.5 32V26.0952H63.5V32H33.5ZM38.75 21.6667L46.625 1H50.375L58.25 21.6667H54.65L52.775 16.3524H44.3L42.35 21.6667H38.75ZM45.35 13.4H51.65L48.575 4.8381H48.425L45.35 13.4Z" fill="#AFB1B2"/>
<path d="M29.748 1H3.25654L3 9.85714H5.25038C6.06051 5.00343 6.85264 4.57828 12.8746 4.38786L14.1934 4.34357V26.885C14.1934 28.9664 13.7433 29.4624 10.1517 29.7857V32H22.8483V29.7857C19.2342 29.4624 18.7841 28.9709 18.7841 26.8894V4.34357L20.1254 4.38786C26.1474 4.57828 26.9395 5.00786 27.7496 9.85714H30L29.748 1Z" fill="#AFB1B2"/>
</svg>
