<svg width="225" height="193" viewBox="0 0 225 193" fill="none" xmlns="http://www.w3.org/2000/svg">
<path fill-rule="evenodd" clip-rule="evenodd" d="M45.0772 179.081C45.2624 179.18 45.4325 179.305 45.5831 179.45C45.4075 179.337 45.2386 179.213 45.0772 179.081Z" fill="#AFB1B2"/>
<path fill-rule="evenodd" clip-rule="evenodd" d="M51.6995 179.348C51.7773 179.283 51.8596 179.222 51.9457 179.167C51.8653 179.23 51.7832 179.29 51.6995 179.348Z" fill="#AFB1B2"/>
<path fill-rule="evenodd" clip-rule="evenodd" d="M48.5652 169C45.4916 169 43 171.537 43 174.666C43 176.451 43.8105 178.042 45.0772 179.081C45.2624 179.18 45.4325 179.305 45.5831 179.45C46.0198 179.872 46.2921 180.469 46.2921 181.13V181.249H48.0949V176.22C47.5469 176.023 47.1543 175.491 47.1543 174.865C47.1543 174.072 47.786 173.429 48.5652 173.429C49.3444 173.429 49.9761 174.072 49.9761 174.865C49.9761 175.476 49.6021 175.997 49.0747 176.205V181.249H50.8775V181.13C50.8775 180.413 51.1973 179.773 51.6995 179.348C51.7773 179.283 51.8596 179.222 51.9457 179.167C53.2739 178.132 54.1304 176.501 54.1304 174.666C54.1304 171.537 51.6388 169 48.5652 169ZM46.2921 183.923V182.247H50.8775V183.923C50.8775 184.518 50.4038 185 49.8194 185H47.3503C46.7659 185 46.2921 184.518 46.2921 183.923Z" fill="#AFB1B2"/>
<path d="M49.0747 174.865C49.0747 175.152 48.8466 175.384 48.5652 175.384C48.2838 175.384 48.0557 175.152 48.0557 174.865C48.0557 174.579 48.2838 174.347 48.5652 174.347C48.8466 174.347 49.0747 174.579 49.0747 174.865Z" fill="#AFB1B2"/>
<path d="M6 184V179.018H7.99288V182.007H25.9288V179.018H27.9217V184H6ZM14.5196 179.989V179.142H14.4448C14.2289 179.474 13.9383 179.736 13.573 179.928C13.2076 180.118 12.7924 180.214 12.3274 180.214C11.5136 180.214 10.8743 180.002 10.4093 179.578C9.94425 179.155 9.71174 178.578 9.71174 177.847C9.71174 177.149 9.98178 176.58 10.5219 176.14C11.0613 175.7 11.7544 175.48 12.6014 175.48C12.9834 175.48 13.3365 175.509 13.6606 175.567C13.9842 175.626 14.2622 175.721 14.4947 175.854V175.505C14.4947 175.057 14.3409 174.7 14.0333 174.434C13.7264 174.168 13.3072 174.036 12.7758 174.036C12.427 174.036 12.0989 174.11 11.7913 174.26C11.4844 174.409 11.223 174.625 11.0071 174.907L9.93594 174.11C10.2515 173.662 10.6501 173.321 11.1317 173.089C11.6133 172.856 12.1696 172.74 12.8007 172.74C13.8304 172.74 14.6192 172.985 15.1673 173.475C15.7153 173.965 15.9893 174.675 15.9893 175.605V179.989H14.5196ZM12.8754 176.651C12.344 176.651 11.9371 176.755 11.6548 176.962C11.3725 177.17 11.2313 177.465 11.2313 177.847C11.2313 178.179 11.3559 178.449 11.605 178.656C11.8541 178.864 12.1779 178.968 12.5765 178.968C13.1079 178.968 13.5607 178.781 13.9347 178.407C14.308 178.034 14.4947 177.581 14.4947 177.05C14.2622 176.917 13.9964 176.817 13.6975 176.751C13.3986 176.684 13.1246 176.651 12.8754 176.651ZM17.484 179.989V170H19.0285V172.815L18.9537 173.811H19.0285C19.0783 173.728 19.2776 173.516 19.6263 173.176C19.9751 172.836 20.5231 172.665 21.2705 172.665C22.3333 172.665 23.172 173.047 23.7865 173.811C24.4009 174.575 24.7082 175.456 24.7082 176.452C24.7082 177.448 24.4053 178.324 23.7994 179.08C23.1929 179.836 22.3499 180.214 21.2705 180.214C20.5896 180.214 20.0707 180.064 19.714 179.765C19.3566 179.466 19.1281 179.234 19.0285 179.068H18.9537V179.989H17.484ZM21.0463 174.06C20.382 174.06 19.8671 174.305 19.5018 174.795C19.1364 175.285 18.9537 175.829 18.9537 176.427C18.9537 177.042 19.1364 177.59 19.5018 178.071C19.8671 178.553 20.382 178.794 21.0463 178.794C21.7106 178.794 22.2297 178.553 22.6037 178.071C22.977 177.59 23.1637 177.042 23.1637 176.427C23.1637 175.813 22.977 175.265 22.6037 174.783C22.2297 174.301 21.7106 174.06 21.0463 174.06Z" fill="#AFB1B2"/>
<path d="M209.527 144.545C211.163 144.545 212.472 145.854 212.472 147.49C212.472 148.066 212.309 148.61 212.021 149.061L214.036 151.09L213.127 152L211.085 149.991C210.633 150.272 210.096 150.436 209.527 150.436C207.891 150.436 206.582 149.127 206.582 147.49C206.582 145.854 207.891 144.545 209.527 144.545ZM209.527 145.854C209.093 145.854 208.677 146.027 208.37 146.333C208.063 146.64 207.891 147.056 207.891 147.49C207.891 147.924 208.063 148.341 208.37 148.647C208.677 148.954 209.093 149.127 209.527 149.127C209.961 149.127 210.377 148.954 210.684 148.647C210.991 148.341 211.163 147.924 211.163 147.49C211.163 147.056 210.991 146.64 210.684 146.333C210.377 146.027 209.961 145.854 209.527 145.854ZM203.309 151.09C202.962 151.09 202.629 150.952 202.383 150.707C202.138 150.461 202 150.128 202 149.781V139.309C202 138.962 202.138 138.629 202.383 138.383C202.629 138.138 202.962 138 203.309 138H203.964V142.582L205.6 141.6L207.236 142.582V138H211.163C211.51 138 211.843 138.138 212.089 138.383C212.334 138.629 212.472 138.962 212.472 139.309V144.421C211.681 143.659 210.625 143.235 209.527 143.236C208.399 143.236 207.316 143.684 206.519 144.482C205.721 145.28 205.273 146.362 205.273 147.49C205.273 149.002 206.065 150.338 207.256 151.09H203.309Z" fill="#AFB1B2"/>
<path d="M182.6 138C172.1 138 170.7 147.8 170 152H171.399C171.865 149.667 173.032 148.384 174.9 148.15C177.7 147.8 179.8 145.35 180.5 143.25L179.45 142.55L180.15 141.85C180.85 141.15 181.553 140.1 182.6 138Z" fill="#AFB1B2"/>
<path d="M139.5 152L136 148.5L137.225 147.275L138.625 148.631V141.369L137.225 142.725L136 141.5L139.5 138L143 141.5L141.775 142.725L140.375 141.369V148.631L141.775 147.275L143 148.5L139.5 152ZM144.75 151.125V149.375H153.5V151.125H144.75ZM144.75 145.875V144.125H153.5V145.875H144.75ZM144.75 140.625V138.875H153.5V140.625H144.75Z" fill="#AFB1B2"/>
<path d="M106 152V150.444H120V152H106ZM106 148.889V147.333H120V148.889H106ZM106 145.778V144.222H120V145.778H106ZM106 142.667V141.111H120V142.667H106ZM106 139.556V138H120V139.556H106Z" fill="#AFB1B2"/>
<path d="M74 152V150.444H88V152H74ZM78.6667 148.889V147.333H88V148.889H78.6667ZM74 145.778V144.222H88V145.778H74ZM78.6667 142.667V141.111H88V142.667H78.6667ZM74 139.556V138H88V139.556H74Z" fill="#AFB1B2"/>
<path d="M42 152V150.444H56V152H42ZM45.1111 148.889V147.333H52.8889V148.889H45.1111ZM42 145.778V144.222H56V145.778H42ZM45.1111 142.667V141.111H52.8889V142.667H45.1111ZM42 139.556V138H56V139.556H42Z" fill="#AFB1B2"/>
<path d="M10 152V150.444H24V152H10ZM10 148.889V147.333H19.3333V148.889H10ZM10 145.778V144.222H24V145.778H10ZM10 142.667V141.111H19.3333V142.667H10ZM10 139.556V138H24V139.556H10Z" fill="#AFB1B2"/>
<path d="M203 120V118.444H215.833V120H203ZM209.417 116.889C207.874 116.889 206.674 116.481 205.819 115.664C204.963 114.847 204.535 113.765 204.535 112.417V106H206.896V112.533C206.896 113.259 207.11 113.849 207.537 114.303C207.965 114.756 208.592 114.983 209.417 114.983C210.242 114.983 210.868 114.756 211.296 114.303C211.724 113.849 211.938 113.259 211.938 112.533V106H214.298V112.417C214.298 113.765 213.87 114.847 213.015 115.664C212.159 116.481 210.96 116.889 209.417 116.889Z" fill="#AFB1B2"/>
<path d="M170 120V117.5H174.308L177.538 108.5H173.231V106H184V108.5H180.231L177 117.5H180.769V120H170Z" fill="#AFB1B2"/>
<path d="M139 120V106H144.95C146.117 106 147.194 106.333 148.181 107C149.168 107.667 149.662 108.592 149.662 109.775C149.662 110.625 149.455 111.279 149.042 111.737C148.629 112.196 148.244 112.525 147.885 112.725C148.333 112.908 148.832 113.25 149.379 113.75C149.926 114.25 150.2 115 150.2 116C150.2 117.483 149.617 118.521 148.45 119.113C147.283 119.704 146.188 120 145.165 120H139ZM142.258 117.2H145.058C145.919 117.2 146.444 116.996 146.632 116.587C146.821 116.179 146.915 115.883 146.915 115.7C146.915 115.517 146.821 115.221 146.632 114.812C146.444 114.404 145.892 114.2 144.977 114.2H142.258V117.2ZM142.258 111.5H144.762C145.354 111.5 145.785 111.358 146.054 111.075C146.323 110.792 146.458 110.475 146.458 110.125C146.458 109.725 146.305 109.4 146 109.15C145.695 108.9 145.3 108.775 144.815 108.775H142.258V111.5Z" fill="#AFB1B2"/>
<path d="M113.172 115.333H114.673L111.004 106H109.669L106 115.333H107.501L108.305 113.179H112.354L113.172 115.333ZM108.85 111.744L110.336 107.781L111.823 111.744H108.85ZM119.734 112.167L113.926 117.975L111.291 115.333L110.279 116.346L113.933 120L120.747 113.179L119.734 112.167Z" fill="#AFB1B2"/>
<path d="M85.4444 109.111H76.1111V106H85.4444V109.111ZM85.4444 113.389C85.6648 113.389 85.8494 113.314 85.9982 113.165C86.1476 113.016 86.2222 112.831 86.2222 112.611C86.2222 112.391 86.1476 112.206 85.9982 112.057C85.8494 111.908 85.6648 111.833 85.4444 111.833C85.2241 111.833 85.0395 111.908 84.8907 112.057C84.7413 112.206 84.6667 112.391 84.6667 112.611C84.6667 112.831 84.7413 113.016 84.8907 113.165C85.0395 113.314 85.2241 113.389 85.4444 113.389ZM83.8889 118.444V115.333H77.6667V118.444H83.8889ZM85.4444 120H76.1111V116.889H73V112.222C73 111.561 73.2269 111.007 73.6806 110.56C74.1343 110.113 74.6852 109.889 75.3333 109.889H86.2222C86.8833 109.889 87.4376 110.113 87.8851 110.56C88.3321 111.007 88.5556 111.561 88.5556 112.222V116.889H85.4444V120Z" fill="#AFB1B2"/>
<path d="M48.3831 109.821C50.5578 109.821 52.5274 110.633 54.0456 111.954L57 109V116.386H49.6141L52.5849 113.415C51.4442 112.463 49.9916 111.872 48.3831 111.872C45.478 111.872 43.0078 113.768 42.1461 116.386L40.2012 115.746C41.3419 112.307 44.567 109.821 48.3831 109.821Z" fill="#AFB1B2"/>
<path d="M17.6169 109.821C15.4422 109.821 13.4726 110.633 11.9544 111.954L9 109V116.386H16.3859L13.4151 113.415C14.5558 112.463 16.0084 111.872 17.6169 111.872C20.522 111.872 22.9922 113.768 23.8539 116.386L25.7988 115.746C24.6581 112.307 21.433 109.821 17.6169 109.821Z" fill="#AFB1B2"/>
<path fill-rule="evenodd" clip-rule="evenodd" d="M45.0772 83.081C45.2624 83.1804 45.4325 83.305 45.5831 83.4504C45.4075 83.3368 45.2386 83.2134 45.0772 83.081Z" fill="#5F6366"/>
<path fill-rule="evenodd" clip-rule="evenodd" d="M51.6995 83.3484C51.7773 83.2825 51.8596 83.2219 51.9457 83.167C51.8653 83.2296 51.7832 83.2901 51.6995 83.3484Z" fill="#5F6366"/>
<path fill-rule="evenodd" clip-rule="evenodd" d="M48.5652 73C45.4916 73 43 75.5367 43 78.6658C43 80.4505 43.8105 82.0424 45.0772 83.081C45.2624 83.1804 45.4325 83.305 45.5831 83.4504C46.0198 83.8722 46.2921 84.4685 46.2921 85.1297V85.2494H48.0949V80.22C47.5469 80.0228 47.1543 79.4908 47.1543 78.8653C47.1543 78.072 47.786 77.4289 48.5652 77.4289C49.3444 77.4289 49.9761 78.072 49.9761 78.8653C49.9761 79.4757 49.6021 79.9972 49.0747 80.2052V85.2494H50.8775V85.1297C50.8775 84.4132 51.1973 83.7728 51.6995 83.3484C51.7773 83.2825 51.8596 83.2219 51.9457 83.167C53.2739 82.1315 54.1304 80.5005 54.1304 78.6658C54.1304 75.5367 51.6388 73 48.5652 73ZM46.2921 87.9227V86.2469H50.8775V87.9227C50.8775 88.5177 50.4038 89 49.8194 89H47.3503C46.7659 89 46.2921 88.5177 46.2921 87.9227Z" fill="#5F6366"/>
<path d="M49.0747 78.8653C49.0747 79.1518 48.8466 79.384 48.5652 79.384C48.2838 79.384 48.0557 79.1518 48.0557 78.8653C48.0557 78.5789 48.2838 78.3466 48.5652 78.3466C48.8466 78.3466 49.0747 78.5789 49.0747 78.8653Z" fill="#5F6366"/>
<path d="M6 88V83.0178H7.99288V86.0071H25.9288V83.0178H27.9217V88H6ZM14.5196 83.9893V83.1423H14.4448C14.2289 83.4745 13.9383 83.7362 13.573 83.9275C13.2076 84.1182 12.7924 84.2135 12.3274 84.2135C11.5136 84.2135 10.8743 84.0016 10.4093 83.5778C9.94425 83.1546 9.71174 82.5777 9.71174 81.847C9.71174 81.1495 9.98178 80.5805 10.5219 80.1401C11.0613 79.7003 11.7544 79.4804 12.6014 79.4804C12.9834 79.4804 13.3365 79.5093 13.6606 79.5671C13.9842 79.6256 14.2622 79.7212 14.4947 79.8541V79.5053C14.4947 79.0569 14.3409 78.6999 14.0333 78.4342C13.7264 78.1684 13.3072 78.0356 12.7758 78.0356C12.427 78.0356 12.0989 78.1103 11.7913 78.2598C11.4844 78.4093 11.223 78.6251 11.0071 78.9075L9.93594 78.1103C10.2515 77.6619 10.6501 77.3215 11.1317 77.089C11.6133 76.8565 12.1696 76.7402 12.8007 76.7402C13.8304 76.7402 14.6192 76.985 15.1673 77.4746C15.7153 77.9648 15.9893 78.675 15.9893 79.605V83.9893H14.5196ZM12.8754 80.6512C12.344 80.6512 11.9371 80.7549 11.6548 80.9621C11.3725 81.1701 11.2313 81.465 11.2313 81.847C11.2313 82.1791 11.3559 82.4488 11.605 82.6561C11.8541 82.864 12.1779 82.968 12.5765 82.968C13.1079 82.968 13.5607 82.781 13.9347 82.407C14.308 82.0336 14.4947 81.5813 14.4947 81.0498C14.2622 80.917 13.9964 80.8173 13.6975 80.7509C13.3986 80.6845 13.1246 80.6512 12.8754 80.6512ZM17.484 83.9893V74H19.0285V76.8149L18.9537 77.8114H19.0285C19.0783 77.7284 19.2776 77.5164 19.6263 77.1757C19.9751 76.8355 20.5231 76.6655 21.2705 76.6655C22.3333 76.6655 23.172 77.0475 23.7865 77.8114C24.4009 78.5753 24.7082 79.4555 24.7082 80.452C24.7082 81.4484 24.4053 82.3243 23.7994 83.0796C23.1929 83.8355 22.3499 84.2135 21.2705 84.2135C20.5896 84.2135 20.0707 84.0641 19.714 83.7651C19.3566 83.4662 19.1281 83.2337 19.0285 83.0676H18.9537V83.9893H17.484ZM21.0463 78.0605C20.382 78.0605 19.8671 78.3053 19.5018 78.7949C19.1364 79.2851 18.9537 79.8292 18.9537 80.427C18.9537 81.0415 19.1364 81.5896 19.5018 82.0712C19.8671 82.5528 20.382 82.7936 21.0463 82.7936C21.7106 82.7936 22.2297 82.5528 22.6037 82.0712C22.977 81.5896 23.1637 81.0415 23.1637 80.427C23.1637 79.8126 22.977 79.2645 22.6037 78.7829C22.2297 78.3013 21.7106 78.0605 21.0463 78.0605Z" fill="#5F6366"/>
<path d="M209.527 48.5451C211.163 48.5451 212.472 49.8541 212.472 51.4904C212.472 52.0664 212.309 52.6096 212.021 53.0612L214.036 55.0902L213.127 56L211.085 53.9906C210.633 54.2721 210.096 54.4357 209.527 54.4357C207.891 54.4357 206.582 53.1267 206.582 51.4904C206.582 49.8541 207.891 48.5451 209.527 48.5451ZM209.527 49.8541C209.093 49.8541 208.677 50.0265 208.37 50.3334C208.063 50.6403 207.891 51.0564 207.891 51.4904C207.891 51.9244 208.063 52.3406 208.37 52.6474C208.677 52.9543 209.093 53.1267 209.527 53.1267C209.961 53.1267 210.377 52.9543 210.684 52.6474C210.991 52.3406 211.163 51.9244 211.163 51.4904C211.163 51.0564 210.991 50.6403 210.684 50.3334C210.377 50.0265 209.961 49.8541 209.527 49.8541ZM203.309 55.0902C202.962 55.0902 202.629 54.9523 202.383 54.7068C202.138 54.4613 202 54.1284 202 53.7812V43.309C202 42.9618 202.138 42.6289 202.383 42.3834C202.629 42.1379 202.962 42 203.309 42H203.964V46.5816L205.6 45.5998L207.236 46.5816V42H211.163C211.51 42 211.843 42.1379 212.089 42.3834C212.334 42.6289 212.472 42.9618 212.472 43.309V48.4208C211.681 47.6595 210.625 47.2348 209.527 47.2361C208.399 47.2361 207.316 47.6843 206.519 48.4822C205.721 49.28 205.273 50.3621 205.273 51.4904C205.273 53.0023 206.065 54.3375 207.256 55.0902H203.309Z" fill="#5F6366"/>
<path d="M182.6 42C172.1 42 170.7 51.8 170 56H171.399C171.865 53.6669 173.032 52.3838 174.9 52.15C177.7 51.8 179.8 49.35 180.5 47.25L179.45 46.55L180.15 45.85C180.85 45.15 181.553 44.1 182.6 42Z" fill="#5F6366"/>
<path d="M139.5 56L136 52.5L137.225 51.275L138.625 52.6312V45.3687L137.225 46.725L136 45.5L139.5 42L143 45.5L141.775 46.725L140.375 45.3687V52.6312L141.775 51.275L143 52.5L139.5 56ZM144.75 55.125V53.375H153.5V55.125H144.75ZM144.75 49.875V48.125H153.5V49.875H144.75ZM144.75 44.625V42.875H153.5V44.625H144.75Z" fill="#5F6366"/>
<path d="M106 56V54.4444H120V56H106ZM106 52.8889V51.3333H120V52.8889H106ZM106 49.7778V48.2222H120V49.7778H106ZM106 46.6667V45.1111H120V46.6667H106ZM106 43.5556V42H120V43.5556H106Z" fill="#5F6366"/>
<path d="M74 56V54.4444H88V56H74ZM78.6667 52.8889V51.3333H88V52.8889H78.6667ZM74 49.7778V48.2222H88V49.7778H74ZM78.6667 46.6667V45.1111H88V46.6667H78.6667ZM74 43.5556V42H88V43.5556H74Z" fill="#5F6366"/>
<path d="M42 56V54.4444H56V56H42ZM45.1111 52.8889V51.3333H52.8889V52.8889H45.1111ZM42 49.7778V48.2222H56V49.7778H42ZM45.1111 46.6667V45.1111H52.8889V46.6667H45.1111ZM42 43.5556V42H56V43.5556H42Z" fill="#5F6366"/>
<path d="M10 56V54.4444H24V56H10ZM10 52.8889V51.3333H19.3333V52.8889H10ZM10 49.7778V48.2222H24V49.7778H10ZM10 46.6667V45.1111H19.3333V46.6667H10ZM10 43.5556V42H24V43.5556H10Z" fill="#5F6366"/>
<path d="M203 24V22.4444H215.833V24H203ZM209.417 20.8889C207.874 20.8889 206.674 20.4806 205.819 19.6639C204.963 18.8472 204.535 17.7648 204.535 16.4167V10H206.896V16.5333C206.896 17.2593 207.11 17.8491 207.537 18.3028C207.965 18.7565 208.592 18.9833 209.417 18.9833C210.242 18.9833 210.868 18.7565 211.296 18.3028C211.724 17.8491 211.938 17.2593 211.938 16.5333V10H214.298V16.4167C214.298 17.7648 213.87 18.8472 213.015 19.6639C212.159 20.4806 210.96 20.8889 209.417 20.8889Z" fill="#5F6366"/>
<path d="M170 24V21.5H174.308L177.538 12.5H173.231V10H184V12.5H180.231L177 21.5H180.769V24H170Z" fill="#5F6366"/>
<path d="M139 24V10H144.95C146.117 10 147.194 10.3333 148.181 11C149.168 11.6667 149.662 12.5917 149.662 13.775C149.662 14.625 149.455 15.279 149.042 15.737C148.629 16.1957 148.244 16.525 147.885 16.725C148.333 16.9083 148.832 17.25 149.379 17.75C149.926 18.25 150.2 19 150.2 20C150.2 21.4833 149.617 22.521 148.45 23.113C147.283 23.7043 146.188 24 145.165 24H139ZM142.258 21.2H145.058C145.919 21.2 146.444 20.9957 146.632 20.587C146.821 20.179 146.915 19.8833 146.915 19.7C146.915 19.5167 146.821 19.2207 146.632 18.812C146.444 18.404 145.892 18.2 144.977 18.2H142.258V21.2ZM142.258 15.5H144.762C145.354 15.5 145.785 15.3583 146.054 15.075C146.323 14.7917 146.458 14.475 146.458 14.125C146.458 13.725 146.305 13.4 146 13.15C145.695 12.9 145.3 12.775 144.815 12.775H142.258V15.5Z" fill="#5F6366"/>
<path d="M113.172 19.3333H114.673L111.004 10H109.669L106 19.3333H107.501L108.305 17.1795H112.354L113.172 19.3333ZM108.85 15.7436L110.336 11.7805L111.823 15.7436H108.85ZM119.734 16.1672L113.926 21.9754L111.291 19.3333L110.279 20.3456L113.933 24L120.747 17.1795L119.734 16.1672Z" fill="#5F6366"/>
<path d="M85.4444 13.1111H76.1111V10H85.4444V13.1111ZM85.4444 17.3889C85.6648 17.3889 85.8494 17.3142 85.9982 17.1649C86.1476 17.0161 86.2222 16.8315 86.2222 16.6111C86.2222 16.3907 86.1476 16.2059 85.9982 16.0566C85.8494 15.9077 85.6648 15.8333 85.4444 15.8333C85.2241 15.8333 85.0395 15.9077 84.8907 16.0566C84.7413 16.2059 84.6667 16.3907 84.6667 16.6111C84.6667 16.8315 84.7413 17.0161 84.8907 17.1649C85.0395 17.3142 85.2241 17.3889 85.4444 17.3889ZM83.8889 22.4444V19.3333H77.6667V22.4444H83.8889ZM85.4444 24H76.1111V20.8889H73V16.2222C73 15.5611 73.2269 15.0071 73.6806 14.5601C74.1343 14.1126 74.6852 13.8889 75.3333 13.8889H86.2222C86.8833 13.8889 87.4376 14.1126 87.8851 14.5601C88.3321 15.0071 88.5556 15.5611 88.5556 16.2222V20.8889H85.4444V24Z" fill="#5F6366"/>
<path d="M48.3831 13.8207C50.5578 13.8207 52.5274 14.6331 54.0456 15.9544L57 13V20.3859H49.6141L52.5849 17.4151C51.4442 16.4632 49.9916 15.8723 48.3831 15.8723C45.478 15.8723 43.0078 17.768 42.1461 20.3859L40.2012 19.7458C41.3419 16.3072 44.567 13.8207 48.3831 13.8207Z" fill="#5F6366"/>
<path d="M17.6169 13.8207C15.4422 13.8207 13.4726 14.6331 11.9544 15.9544L9 13V20.3859H16.3859L13.4151 17.4151C14.5558 16.4632 16.0084 15.8723 17.6169 15.8723C20.522 15.8723 22.9922 17.768 23.8539 20.3859L25.7988 19.7458C24.6581 16.3072 21.433 13.8207 17.6169 13.8207Z" fill="#5F6366"/>
</svg>
