<svg width="26" height="37" viewBox="0 0 26 37" fill="none" xmlns="http://www.w3.org/2000/svg">
<path fill-rule="evenodd" clip-rule="evenodd" d="M4.85188 23.3123C5.2846 23.5421 5.68201 23.8303 6.03376 24.1666C5.62363 23.9038 5.2291 23.6184 4.85188 23.3123Z" fill="white"/>
<path fill-rule="evenodd" clip-rule="evenodd" d="M20.3212 23.9306C20.5031 23.7783 20.6952 23.6381 20.8964 23.5111C20.7086 23.656 20.5168 23.7959 20.3212 23.9306Z" fill="white"/>
<path fill-rule="evenodd" clip-rule="evenodd" d="M12.9998 0C5.82005 0 -0.000244141 5.86608 -0.000244141 13.1022C-0.000244141 17.2293 1.89299 20.9107 4.85188 23.3123C5.2846 23.5421 5.68201 23.8303 6.03376 24.1666C7.05379 25.1419 7.6899 26.521 7.6899 28.0499V28.3267H11.9012V16.6963C10.6211 16.2403 9.70398 15.0099 9.70398 13.5636C9.70398 11.7291 11.1795 10.2419 12.9998 10.2419C14.82 10.2419 16.2955 11.7291 16.2955 13.5636C16.2955 14.9752 15.4219 16.1811 14.1899 16.6621V28.3267H18.4012V28.0499C18.4012 26.3931 19.1481 24.9122 20.3212 23.9306C20.5031 23.7783 20.6952 23.6381 20.8964 23.5111C23.9989 21.1166 25.9998 17.3449 25.9998 13.1022C25.9998 5.86608 20.1795 0 12.9998 0ZM7.6899 34.5087V30.6334H18.4012V34.5087C18.4012 35.8846 17.2945 37 15.9293 37H10.1617C8.79657 37 7.6899 35.8846 7.6899 34.5087Z" fill="white"/>
<path d="M14.1899 13.5636C14.1899 14.2261 13.6571 14.7631 12.9998 14.7631C12.3425 14.7631 11.8096 14.2261 11.8096 13.5636C11.8096 12.9011 12.3425 12.3641 12.9998 12.3641C13.6571 12.3641 14.1899 12.9011 14.1899 13.5636Z" fill="white"/>
</svg>
